<?xml version="1.0" ?><svg viewBox="0 0 24 24" xmlns="http://www.w3.org/2000/svg" xmlns:xlink="http://www.w3.org/1999/xlink"><defs><linearGradient gradientUnits="userSpaceOnUse" id="a" x1="6.05496" x2="20.06857" y1="3.62485" y2="17.63846"><stop offset="0" stop-color="#fff" stop-opacity="0"/><stop offset="1" stop-color="#fff" stop-opacity="0.1"/></linearGradient></defs><title/><path d="M18.08716,3.552a2.00175,2.00175,0,1,0,.57019-2.02423A13.48065,13.48065,0,0,0,12.5,0C8.85107,0,5.88812,3.61829,5.17584,5.12054A2.49749,2.49749,0,0,0,3.56934,6.71l-.1045.31543A1.48342,1.48342,0,0,0,3.67041,8.377a1.51529,1.51529,0,0,0,.26324.27881A4.66823,4.66823,0,0,0,2,12a3.55315,3.55315,0,0,0,.89014,2.65918c-.26856.71191-.687,2.251.25634,3.19434A3.88521,3.88521,0,0,0,5.13721,18.957c.33838.85352,1.4497,3.27979,3.416,4.12061a3.40482,3.40482,0,0,0,1.46387.292.49286.49286,0,0,0-.01367.188A.49972.49972,0,0,0,10.5,24c4.23389,0,6.73486-3.9873,7.31836-5.03516a3.86273,3.86273,0,0,0,2.03516-1.11132c.94336-.94336.5249-2.48243.25634-3.19434A3.55315,3.55315,0,0,0,21,12a4.66823,4.66823,0,0,0-1.93365-3.34424,1.51529,1.51529,0,0,0,.26324-.27881,1.4842,1.4842,0,0,0,.20605-1.35107l-.10546-.31641A2.49326,2.49326,0,0,0,17.9046,5.15179c-.65515-.59954-.833-.99774-.77667-1.15521C17.195,3.80762,17.62677,3.63654,18.08716,3.552Z"/><circle cx="20" cy="3" fill="#fff" r="1"/><circle cx="20" cy="3" fill="#fff" r="1"/><path d="M20.4082,2.0918A.98519.98519,0,0,1,20.5,2.5a1.0013,1.0013,0,0,1-1,1,.98519.98519,0,0,1-.4082-.0918.99716.99716,0,1,0,1.3164-1.3164Z" opacity="0.2"/><path d="M17.18854,9A7.8927,7.8927,0,0,1,18,12a1.83766,1.83766,0,0,1-2,2,4.17444,4.17444,0,0,1-1.54785-.38379,7.37971,7.37971,0,0,0-5.9043,0A4.17444,4.17444,0,0,1,7,14a1.83766,1.83766,0,0,1-2-2,7.92111,7.92111,0,0,1,.81189-3Z" fill="#fcf0ef"/><path d="M20,12c0,1.62891-.70068,2.03955-.71777,2.0498a.50066.50066,0,0,0-.231.6709c.23047.47071.69727,1.82373.09521,2.42578A2.66347,2.66347,0,0,1,17.49609,18a.50044.50044,0,0,0-.44384.27734c-.02051.04151-1.84131,3.63184-5.08545,4.52393A1.35315,1.35315,0,0,0,12,22.5a.49991.49991,0,0,0-.71143-.45313,2.73459,2.73459,0,0,1-2.33984.11231c-1.93945-.82715-2.96484-3.78955-2.9751-3.81982A.509.509,0,0,0,5.50928,18a2.65868,2.65868,0,0,1-1.65576-.85352c-.60206-.60205-.13526-1.95507.09521-2.42578a.51568.51568,0,0,0-.21826-.66455C3.70068,14.03955,3,13.62891,3,12A3.6917,3.6917,0,0,1,4.5365,9.45453,7.624,7.624,0,0,0,4,12a2.81142,2.81142,0,0,0,3,3,5.065,5.065,0,0,0,1.90527-.44971,6.39249,6.39249,0,0,1,5.18946,0A5.065,5.065,0,0,0,16,15a2.81142,2.81142,0,0,0,3-3,7.624,7.624,0,0,0-.5365-2.54547A3.6917,3.6917,0,0,1,20,12Z" fill="#f2f2f2"/><path d="M20,12c0,1.62891-.70068,2.03955-.71777,2.0498a.50066.50066,0,0,0-.231.6709c.23047.47071.69727,1.82373.09521,2.42578A2.66347,2.66347,0,0,1,17.49609,18a.50044.50044,0,0,0-.44384.27734c-.02051.04151-1.84131,3.63184-5.08545,4.52393A1.35315,1.35315,0,0,0,12,22.5a.49991.49991,0,0,0-.71143-.45313,2.73459,2.73459,0,0,1-2.33984.11231c-1.93945-.82715-2.96484-3.78955-2.9751-3.81982A.509.509,0,0,0,5.50928,18a2.65868,2.65868,0,0,1-1.65576-.85352c-.60206-.60205-.13526-1.95507.09521-2.42578a.51568.51568,0,0,0-.21826-.66455C3.70068,14.03955,3,13.62891,3,12A3.6917,3.6917,0,0,1,4.5365,9.45453,7.624,7.624,0,0,0,4,12a2.81142,2.81142,0,0,0,3,3,5.065,5.065,0,0,0,1.90527-.44971,6.39249,6.39249,0,0,1,5.18946,0A5.065,5.065,0,0,0,16,15a2.81142,2.81142,0,0,0,3-3,7.624,7.624,0,0,0-.5365-2.54547A3.6917,3.6917,0,0,1,20,12Z" fill="#fff"/><path d="M19.02734,14.3374a.5.5,0,0,1,.25489-.2876C19.29932,14.03955,20,13.62891,20,12a2.57669,2.57669,0,0,0-.49792-1.43018,2.07388,2.07388,0,0,1,.07556.52082c0,1.6289-.70069,2.03955-.71778,2.0498a.49278.49278,0,0,0-.058.044,2.79945,2.79945,0,0,1-.21735.4591.4949.4949,0,0,0,.04438.16785c.23047.4707.69726,1.82373.09521,2.42578a2.66347,2.66347,0,0,1-1.65039.85352.50043.50043,0,0,0-.44385.27734c-.0205.0415-1.84131,3.63184-5.08545,4.52393-.49282-.23832-1.34439.12247-1.44983.10784-1.0516-.14594-.82946-.43353-1.56823-.74993a5.67636,5.67636,0,0,1-2.4502-2.64191c.30237.75006,1.27765,2.871,2.87256,3.55127a2.73459,2.73459,0,0,0,2.33984-.11231A.49991.49991,0,0,1,12,22.5a1.35315,1.35315,0,0,1-.0332.30127c3.24414-.89209,5.06494-4.48242,5.08545-4.52393A.50044.50044,0,0,1,17.49609,18a2.66347,2.66347,0,0,0,1.65039-.85352c.60206-.60205.13526-1.95507-.09521-2.42578A.50227.50227,0,0,1,19.02734,14.3374Z" opacity="0.2"/><path d="M5.55127,17.43a.509.509,0,0,0-.46436-.33935,2.6328,2.6328,0,0,1-1.52032-.73285,1.14644,1.14644,0,0,0,.28693.78869A2.65868,2.65868,0,0,0,5.50928,18a.49346.49346,0,0,1,.36944.21167C5.666,17.75916,5.55457,17.43982,5.55127,17.43Z" opacity="0.2"/><path d="M18.48145,7.02539l.10546.31641A.50007.50007,0,0,1,18.11279,8H4.88721a.49971.49971,0,0,1-.47364-.65869l.1045-.31543A1.499,1.499,0,0,1,5.94141,6H17.05859A1.49815,1.49815,0,0,1,18.48145,7.02539Z" fill="#fff"/><path d="M18.58691,7.3418l-.10546-.31641a1.4818,1.4818,0,0,0-.68561-.81378,1.48931,1.48931,0,0,1,.18335.35284l.10547.31641a.50008.50008,0,0,1-.47413.6582H4.39587a.48827.48827,0,0,0,.08606.25342A.49384.49384,0,0,0,4.88721,8H18.11279a.50007.50007,0,0,0,.47412-.6582Z" opacity="0.2"/><path d="M16.186,3.66016A1.5187,1.5187,0,0,0,16.43994,5H6.39581C7.33,3.57166,9.73389,1,12.5,1a12.634,12.634,0,0,1,5.6106,1.37268c-.01874.056-.039.11127-.05274.16943C17.45618,2.62811,16.46234,2.88538,16.186,3.66016Z" fill="#e83628"/><path d="M13.5,1.5a19.00505,19.00505,0,0,1,3.257.28339A12.39651,12.39651,0,0,0,12.5,1C9.73389,1,7.33,3.57166,6.39581,5h1.6106A7.2188,7.2188,0,0,1,13.5,1.5Z" fill="#fff" opacity="0.2"/><path d="M16.46179,2.23486a1.54011,1.54011,0,0,0-1.35718,1.25782l-.0036.01593A1.79826,1.79826,0,0,1,13.38177,5h3.05817a1.5187,1.5187,0,0,1-.2539-1.33984c.2763-.77478,1.27014-1.032,1.87182-1.118.01038-.04388.02545-.08569.0398-.12786A14.26784,14.26784,0,0,0,16.46179,2.23486Z" opacity="0.2"/><path d="M13.0918,15.21094A2.11367,2.11367,0,0,1,11.5,16a2.07949,2.07949,0,0,1-1.59375-.7915.5001.5001,0,0,0-.81445.58056,3.00007,3.00007,0,0,0,4.8164,0,.50018.50018,0,0,0-.8164-.57812Z" fill="#e83628"/><circle cx="8.5" cy="10.5" r="0.5"/><circle cx="14.5" cy="10.5" r="0.5"/><path d="M18.08716,3.552a2.00175,2.00175,0,1,0,.57019-2.02423A13.48065,13.48065,0,0,0,12.5,0C8.85107,0,5.88812,3.61829,5.17584,5.12054A2.49749,2.49749,0,0,0,3.56934,6.71l-.1045.31543A1.48342,1.48342,0,0,0,3.67041,8.377a1.51529,1.51529,0,0,0,.26324.27881A4.66823,4.66823,0,0,0,2,12a3.55315,3.55315,0,0,0,.89014,2.65918c-.26856.71191-.687,2.251.25634,3.19434A3.88521,3.88521,0,0,0,5.13721,18.957c.33838.85352,1.4497,3.27979,3.416,4.12061a3.40482,3.40482,0,0,0,1.46387.292.49286.49286,0,0,0-.01367.188A.49972.49972,0,0,0,10.5,24c4.23389,0,6.73486-3.9873,7.31836-5.03516a3.86273,3.86273,0,0,0,2.03516-1.11132c.94336-.94336.5249-2.48243.25634-3.19434A3.55315,3.55315,0,0,0,21,12a4.66823,4.66823,0,0,0-1.93365-3.34424,1.51529,1.51529,0,0,0,.26324-.27881,1.4842,1.4842,0,0,0,.20605-1.35107l-.10546-.31641A2.49326,2.49326,0,0,0,17.9046,5.15179c-.65515-.59954-.833-.99774-.77667-1.15521C17.195,3.80762,17.62677,3.63654,18.08716,3.552Z" fill="url(#a)"/></svg>