<?xml version="1.0" ?><svg viewBox="0 0 24 24" xmlns="http://www.w3.org/2000/svg" xmlns:xlink="http://www.w3.org/1999/xlink"><defs><linearGradient gradientUnits="userSpaceOnUse" id="a" x1="0.14636" x2="23.85364" y1="0.14636" y2="23.85364"><stop offset="0" stop-color="#fff" stop-opacity="0"/><stop offset="1" stop-color="#fff" stop-opacity="0.1"/></linearGradient></defs><title/><path d="M23,4h.5a.49971.49971,0,0,0,.5-.5V.5a.49971.49971,0,0,0-.5-.5H.5A.49971.49971,0,0,0,0,.5v3A.49971.49971,0,0,0,.5,4H1V21H.5a.49971.49971,0,0,0-.5.5v2a.49971.49971,0,0,0,.5.5h23a.49971.49971,0,0,0,.5-.5v-2a.49971.49971,0,0,0-.5-.5H23Z"/><path d="M1,1H5v.5a.5.5,0,0,0,1,0V1H16v.5a.5.5,0,0,0,1,0V1h6V3H12V2.5a.5.5,0,0,0-1,0V3H1Z" fill="#882f0b"/><path d="M22,1v.38885a1,1,0,0,1-1,1H11.9776A.48005.48005,0,0,1,12,2.5V3H23V1Z" opacity="0.2"/><path d="M1,2.38885V3H11V2.5a.48005.48005,0,0,1,.0224-.11115Z" opacity="0.2"/><rect fill="#882f0b" height="1" width="22" x="1" y="22"/><path d="M22.34674,22a.98585.98585,0,0,1-.84674.5H1V23H23V22Z" opacity="0.2"/><path d="M6,14a6,6,0,0,1,12,0v7H16.16931A4.64394,4.64394,0,0,0,17,18.375c0-.1333-.00879-.25684-.02441-.47852a6.548,6.548,0,0,0-1.53125-3.68554A4.23673,4.23673,0,0,1,14.333,11.5a.5.5,0,0,0-.79688-.40234A6.89952,6.89952,0,0,0,11.084,14.335a8.41475,8.41475,0,0,0-.3916,1.99121l-.00976-.01025a1.827,1.827,0,0,1-.34961-1.13721.5008.5008,0,0,0-.7168-.4624c-.0625.03027-1.53809.76953-1.61035,3.39453C8,18.19873,8,18.28711,8,18.375A4.64394,4.64394,0,0,0,8.83069,21H6Z" fill="#882f0b"/><path d="M6,14a6,6,0,0,1,12,0v7H16.16931A4.64394,4.64394,0,0,0,17,18.375c0-.1333-.00879-.25684-.02441-.47852a6.548,6.548,0,0,0-1.53125-3.68554A4.23673,4.23673,0,0,1,14.333,11.5a.5.5,0,0,0-.79688-.40234A6.89952,6.89952,0,0,0,11.084,14.335a8.41475,8.41475,0,0,0-.3916,1.99121l-.00976-.01025a1.827,1.827,0,0,1-.34961-1.13721.5008.5008,0,0,0-.7168-.4624c-.0625.03027-1.53809.76953-1.61035,3.39453C8,18.19873,8,18.28711,8,18.375A4.64394,4.64394,0,0,0,8.83069,21H6Z" opacity="0.2"/><path d="M10.13367,21A3.65473,3.65473,0,0,1,9,18.375c0-.06738,0-.13428.00488-.21924A3.88286,3.88286,0,0,1,9.49512,16.21a2.09772,2.09772,0,0,0,.46972.80176A1.63436,1.63436,0,0,0,11.167,17.5a.49971.49971,0,0,0,.5-.5,7.58054,7.58054,0,0,1,.36621-2.34961,5.55282,5.55282,0,0,1,1.4043-2.1582,5.999,5.999,0,0,0,1.19922,2.30957,5.54559,5.54559,0,0,1,1.34082,3.16553l.00781.10058c.00684.1001.01465.19971.01465.30713A3.65473,3.65473,0,0,1,14.86633,21Z" fill="#b82927"/><path d="M10.83118,21a2.57745,2.57745,0,0,1-.7995-1.85124c0-.04752,0-.0947.00344-.15461a2.73847,2.73847,0,0,1,.34573-1.37225,1.47955,1.47955,0,0,0,.33127.56543,1.15261,1.15261,0,0,0,.8478.34435.35241.35241,0,0,0,.35261-.35262,5.346,5.346,0,0,1,.25827-1.657A3.916,3.916,0,0,1,13.16116,15a4.23065,4.23065,0,0,0,.84573,1.62879,3.9109,3.9109,0,0,1,.94559,2.23244l.00551.07093c.00482.07059.01033.14084.01033.2166A2.57745,2.57745,0,0,1,14.16882,21Z" fill="#e83628"/><path d="M19,21V20h.5a.5.5,0,0,0,0-1H19V14a6.96916,6.96916,0,0,0-.2948-2H19.5a.5.5,0,0,0,0-1h-1a.49294.49294,0,0,0-.1687.034A6.99434,6.99434,0,0,0,5,14v1H4.5a.5.5,0,0,0,0,1H5v5H2V20h.5a.5.5,0,0,0,0-1H2V12H3a.5.5,0,0,0,0-1H2V4H22V15h-.5a.5.5,0,0,0,0,1H22v5Z" fill="#882f0b"/><rect fill="#fff" height="7" opacity="0.2" width="1" x="2" y="4"/><path d="M18.3313,11.034A.49294.49294,0,0,1,18.5,11h-.18768C18.31793,11.01178,18.32574,11.02222,18.3313,11.034Z" fill="#fff" opacity="0.2"/><path d="M21.5,15H22V4H21V21h1V16h-.5a.5.5,0,0,1,0-1Z" opacity="0.2"/><path d="M3,12H2v7h.5a.5.5,0,0,1,0,1H2v1H3Z" fill="#fff" opacity="0.2"/><path d="M15.5,5h-1a.5.5,0,0,0,0,1h1a.5.5,0,0,0,0-1Z"/><path d="M20.5,7h-1a.5.5,0,0,0,0,1h1a.5.5,0,0,0,0-1Z"/><path d="M6.5,7h-1a.5.5,0,0,0,0,1h1a.5.5,0,0,0,0-1Z"/><path d="M4.5,5h-1a.5.5,0,0,0,0,1h1a.5.5,0,0,0,0-1Z"/><path d="M23,4h.5a.49971.49971,0,0,0,.5-.5V.5a.49971.49971,0,0,0-.5-.5H.5A.49971.49971,0,0,0,0,.5v3A.49971.49971,0,0,0,.5,4H1V21H.5a.49971.49971,0,0,0-.5.5v2a.49971.49971,0,0,0,.5.5h23a.49971.49971,0,0,0,.5-.5v-2a.49971.49971,0,0,0-.5-.5H23Z" fill="url(#a)"/></svg>